<?xml version="1.0" encoding="UTF-8" standalone="no"?>
<svg
   xmlns:dc="http://purl.org/dc/elements/1.1/"
   xmlns:cc="http://creativecommons.org/ns#"
   xmlns:rdf="http://www.w3.org/1999/02/22-rdf-syntax-ns#"
   xmlns:svg="http://www.w3.org/2000/svg"
   xmlns="http://www.w3.org/2000/svg"
   xmlns:sodipodi="http://sodipodi.sourceforge.net/DTD/sodipodi-0.dtd"
   xmlns:inkscape="http://www.inkscape.org/namespaces/inkscape"
   width="107mm"
   height="107mm"
   viewBox="0 0 107 107"
   version="1.1"
   id="svg8"
   inkscape:version="1.0.1 (3bc2e813f5, 2020-09-07)"
   sodipodi:docname="puppeteer.svg">
  <defs
     id="defs2" />
  <sodipodi:namedview
     id="base"
     pagecolor="#ffffff"
     bordercolor="#666666"
     borderopacity="1.0"
     inkscape:pageopacity="0.0"
     inkscape:pageshadow="2"
     inkscape:zoom="0.94832662"
     inkscape:cx="127.03098"
     inkscape:cy="253.20088"
     inkscape:document-units="mm"
     inkscape:current-layer="layer1"
     inkscape:document-rotation="0"
     showgrid="false"
     fit-margin-top="0"
     fit-margin-left="0"
     fit-margin-right="0"
     fit-margin-bottom="0"
     inkscape:window-width="1848"
     inkscape:window-height="1016"
     inkscape:window-x="72"
     inkscape:window-y="27"
     inkscape:window-maximized="1" />
  <metadata
     id="metadata5">
    <rdf:RDF>
      <cc:Work
         rdf:about="">
        <dc:format>image/svg+xml</dc:format>
        <dc:type
           rdf:resource="http://purl.org/dc/dcmitype/StillImage" />
        <dc:title></dc:title>
      </cc:Work>
    </rdf:RDF>
  </metadata>
  <g
     inkscape:label="Layer 1"
     inkscape:groupmode="layer"
     id="layer1"
     transform="translate(-58.007754,-97.4908)">
    <path
       style="fill:#00b1b1;fill-opacity:1;stroke-width:0.264583"
       d="m 78.831659,203.73533 c -1.280841,-0.59115 -2.086926,-1.42876 -2.633205,-2.73619 -0.359375,-0.8601 -0.409503,-3.91013 -0.409503,-24.91614 0,-16.15534 0.09081,-24.17819 0.279371,-24.6809 0.153653,-0.40965 0.577713,-1.17854 0.942355,-1.70863 0.900855,-1.3096 5.595985,-13.65927 5.811941,-15.28723 l 0.173259,-1.30609 -2.148255,-1.08012 -2.148254,-1.08012 v -2.6289 -2.62889 l 2.593708,-1.22001 2.593709,-1.22001 0.466098,-5.34241 c 0.256354,-2.93833 0.529482,-5.81866 0.606951,-6.40075 l 0.140852,-1.05833 -2.960832,-1.45521 c -1.628457,-0.80036 -3.068754,-1.65574 -3.200659,-1.90084 -0.310765,-0.57743 -0.311345,-4.08573 -7.7e-4,-4.66605 0.131482,-0.24567 2.161792,-1.39195 4.511801,-2.54729 l 4.272744,-2.10061 11.911387,5.93812 11.911403,5.93813 11.72804,-5.94452 11.72804,-5.94452 4.28575,2.107005 c 2.35716,1.158855 4.39333,2.308015 4.52481,2.553685 0.31036,0.57992 0.31009,4.08822 -2.7e-4,4.66605 -0.13168,0.2451 -1.43779,1.03444 -2.90248,1.75409 -2.25202,1.10651 -2.64593,1.39237 -2.55206,1.85209 0.061,0.29899 0.31443,3.30102 0.56308,6.67119 l 0.45208,6.12757 2.3394,1.11175 2.33941,1.11174 v 2.61309 2.61308 l -1.85208,0.9327 c -1.01865,0.51298 -1.85209,1.03208 -1.85209,1.15355 0,0.55045 5.60079,16.45127 6.20301,17.61056 l 0.67616,1.30161 v 24.04074 c 0,21.10049 -0.0501,24.16061 -0.4095,25.02082 -0.54628,1.30743 -1.35237,2.14504 -2.63321,2.73619 -1.01023,0.46625 -2.49539,0.48845 -32.67604,0.48845 -30.180658,0 -31.665816,-0.0222 -32.676047,-0.48845 z m 64.955211,-1.55086 c 1.94832,-0.97329 1.86095,0.15576 1.78641,-23.08449 l -0.0666,-20.76979 H 111.5077 77.508743 l -0.06607,20.90209 c -0.065,20.56344 -0.05741,20.91625 0.468232,21.77694 1.043462,1.70856 -0.846288,1.61699 33.596795,1.62791 29.33174,0.009 31.41283,-0.0199 32.27917,-0.45266 z M 96.161867,181.48123 v -4.49791 h 0.661459 c 0.422282,0 0.661458,0.14893 0.661458,0.41187 0,0.37279 0.05582,0.37279 0.588043,0 0.32342,-0.22653 1.0497,-0.41187 1.61395,-0.41187 0.813963,0 1.211793,0.18586 1.925513,0.89958 0.76762,0.76762 0.89958,1.08183 0.89958,2.14199 0,1.53094 -0.61891,2.636 -1.78671,3.19016 -0.889133,0.42192 -2.283143,0.33226 -2.591503,-0.16667 -0.364661,-0.59004 -0.510207,-0.13228 -0.426935,1.34279 l 0.08965,1.58798 h -0.81725 -0.817251 z m 4.233333,0 c 0.76135,-0.76134 0.68497,-1.95571 -0.16797,-2.62663 -0.850423,-0.66894 -1.199943,-0.68457 -1.908103,-0.0853 -0.84387,0.71406 -0.95986,1.6873 -0.30093,2.525 0.67392,0.85675 1.63188,0.93211 2.377003,0.18698 z m 3.43959,0 v -4.49791 h 0.66146 c 0.42228,0 0.66145,0.14893 0.66145,0.41187 0,0.37279 0.0558,0.37279 0.58804,0 0.32342,-0.22653 1.0497,-0.41187 1.61396,-0.41187 0.81395,0 1.21178,0.18586 1.9255,0.89958 0.76763,0.76762 0.89959,1.08183 0.89959,2.14199 0,1.53094 -0.61891,2.636 -1.78672,3.19016 -0.88912,0.42192 -2.28313,0.33226 -2.59149,-0.16667 -0.36466,-0.59004 -0.51021,-0.13228 -0.42694,1.34279 l 0.0897,1.58798 h -0.81725 -0.81725 z m 4.23333,0 c 0.76134,-0.76134 0.68496,-1.95571 -0.16797,-2.62663 -0.85042,-0.66894 -1.19994,-0.68457 -1.9081,-0.0853 -0.84387,0.71406 -0.95986,1.6873 -0.30093,2.525 0.67392,0.85675 1.63188,0.93211 2.377,0.18698 z m -18.17281,1.86025 c -0.920682,-0.38689 -1.141776,-1.128 -1.141776,-3.82723 v -2.53093 h 0.79375 0.79375 v 2.21656 c 0,2.4307 0.291823,2.99386 1.406413,2.71412 0.855528,-0.21473 1.23942,-1.21311 1.23942,-3.22334 v -1.70734 h 0.79375 0.79375 v 3.175 3.175 h -0.79375 c -0.562204,0 -0.79375,-0.12774 -0.79375,-0.43789 0,-0.40629 -0.03465,-0.40652 -0.480382,-0.003 -0.60729,0.54959 -1.859611,0.76502 -2.611175,0.44918 z m 23.53287,0.0778 c -0.893,-0.18398 -2.10533,-1.53945 -2.24833,-2.51381 -0.31971,-2.17828 1.07804,-3.92216 3.14367,-3.92216 0.65325,0 1.41679,0.12259 1.69676,0.27242 0.64288,0.34406 1.30826,1.61178 1.30826,2.49256 0,0.67017 -0.0148,0.6746 -2.24896,0.6746 -1.77271,0 -2.24896,0.08 -2.24896,0.37798 0,1.07077 1.77746,1.59852 2.66836,0.79226 0.39898,-0.36107 0.55407,-0.36854 1.15156,-0.0555 l 0.69048,0.36178 -0.73384,0.69623 c -0.73933,0.70143 -2.08271,1.04947 -3.179,0.82362 z m 2.31286,-4.26639 c 0,-0.75666 -1.42102,-1.09598 -2.39865,-0.57277 -0.90726,0.48555 -0.5478,0.78444 0.94344,0.78444 0.80036,0 1.45521,-0.0952 1.45521,-0.21167 z m 4.57802,4.13855 c -0.74437,-0.37276 -1.13844,-1.51673 -1.13844,-3.30491 0,-1.23933 -0.0659,-1.41572 -0.52916,-1.41572 -0.41158,0 -0.52917,-0.17639 -0.52917,-0.79375 0,-0.61736 0.11759,-0.79375 0.52917,-0.79375 0.42837,0 0.52916,-0.17639 0.52916,-0.92604 0,-0.85255 0.063,-0.92605 0.79375,-0.92605 0.73076,0 0.79375,0.0735 0.79375,0.92605 0,0.85254 0.063,0.92604 0.79375,0.92604 0.70556,0 0.79375,0.0882 0.79375,0.79375 0,0.70555 -0.0882,0.79375 -0.79375,0.79375 -0.76604,0 -0.79375,0.0422 -0.79375,1.20802 0,1.44871 0.36828,2.23156 1.04982,2.23156 0.44801,0 1.01865,0.93014 0.74099,1.20781 -0.28606,0.28605 -1.72118,0.33298 -2.23987,0.0732 z m 5.27995,0.12784 c -0.893,-0.18398 -2.10532,-1.53945 -2.24833,-2.51381 -0.3197,-2.17828 1.07805,-3.92216 3.14368,-3.92216 0.65325,0 1.41678,0.12259 1.69675,0.27242 0.64288,0.34406 1.30826,1.61178 1.30826,2.49256 0,0.67017 -0.0148,0.6746 -2.24896,0.6746 -1.7727,0 -2.24895,0.08 -2.24895,0.37798 0,1.07077 1.77745,1.59852 2.66836,0.79226 0.39897,-0.36107 0.55406,-0.36854 1.15155,-0.0555 l 0.69049,0.36178 -0.73385,0.69623 c -0.73932,0.70143 -2.0827,1.04947 -3.179,0.82362 z m 2.31286,-4.26639 c 0,-0.75666 -1.42101,-1.09598 -2.39864,-0.57277 -0.90727,0.48555 -0.5478,0.78444 0.94343,0.78444 0.80037,0 1.45521,-0.0952 1.45521,-0.21167 z m 4.31945,4.07155 c -1.63775,-0.73698 -2.3411,-2.79857 -1.5346,-4.49813 0.74017,-1.55981 2.76924,-2.21485 4.466,-1.44176 0.70713,0.3222 1.4804,1.67139 1.4804,2.58301 0,0.52019 -0.14132,0.55533 -2.23334,0.55533 -1.22834,0 -2.29494,0.0997 -2.37022,0.22147 -0.0753,0.1218 0.0435,0.47899 0.26398,0.79375 0.48261,0.68903 1.82854,0.77176 2.5108,0.15432 0.3689,-0.33385 0.576,-0.35687 1.0291,-0.11438 0.67418,0.36081 0.60008,0.72482 -0.28154,1.38305 -0.88853,0.66338 -2.3174,0.81926 -3.33058,0.36334 z m 2.8243,-4.07155 c 0,-0.45495 -0.67326,-0.84667 -1.45521,-0.84667 -0.78194,0 -1.4552,0.39172 -1.4552,0.84667 0,0.11642 0.65484,0.21167 1.4552,0.21167 0.80037,0 1.45521,-0.0952 1.45521,-0.21167 z m -53.445836,-0.3175 v -4.49792 h 2.220978 c 2.085732,0 2.271015,0.0467 3.042708,0.76762 0.628838,0.58742 0.821731,0.99421 0.821731,1.73293 0,2.02491 -1.119859,3.0557 -3.319741,3.0557 h -1.178176 v 1.7198 1.71979 h -0.79375 -0.79375 z m 4.082143,-0.94494 c 0.487556,-0.48756 0.513991,-0.75841 0.141881,-1.4537 -0.208005,-0.38867 -0.558065,-0.51178 -1.455208,-0.51178 h -1.181316 v 1.19063 1.19062 h 1.039435 c 0.592163,0 1.218343,-0.1789 1.455208,-0.41577 z m 52.274113,2.26786 v -3.175 h 0.66146 c 0.42228,0 0.66146,0.14893 0.66146,0.41187 0,0.37279 0.0558,0.37279 0.58804,0 0.81191,-0.56868 2.43729,-0.56382 2.21839,0.007 -0.0883,0.23018 -0.1606,0.56752 -0.1606,0.74965 0,0.19485 -0.34208,0.33114 -0.8312,0.33114 -1.20788,0 -1.55005,0.64389 -1.55005,2.91689 v 1.9338 h -0.79375 -0.79375 v -3.175 z m 7.67251,-25.73073 c -5.3e-4,-2.62517 -0.49164,-3.81809 -1.85168,-4.49751 -0.86599,-0.43261 -2.95914,-0.46261 -32.27917,-0.46261 -29.320022,0 -31.413173,0.03 -32.279166,0.46261 -1.360038,0.67942 -1.851177,1.87234 -1.851672,4.49751 l -4.11e-4,2.18281 h 34.131249 34.13126 l -5.3e-4,-2.18281 z m -64.517026,-0.35832 c -1.056479,-0.73998 -0.558562,-1.95679 0.80072,-1.95679 0.559621,0 0.774638,0.15478 0.898033,0.64642 0.294426,1.17309 -0.747401,1.97673 -1.698753,1.31037 z m 3.96875,0 c -1.056479,-0.73998 -0.558562,-1.95679 0.800719,-1.95679 0.559622,0 0.774638,0.15478 0.898034,0.64642 0.294426,1.17309 -0.747401,1.97673 -1.698753,1.31037 z m 3.981718,0.009 c -0.999273,-0.69991 -0.594796,-1.96587 0.628104,-1.96587 1.204205,0 1.5316,1.32931 0.496375,2.01541 -0.461367,0.30578 -0.627661,0.29845 -1.124479,-0.0495 z m -7.470253,-7.19139 c -0.0082,-1.01503 -0.253961,-0.86247 -0.639238,0.39688 -0.135106,0.44162 -0.07506,0.59531 0.232579,0.59531 0.304255,0 0.412562,-0.26425 0.406659,-0.99219 z m 57.055761,0 c -0.0818,-0.5457 -0.34927,-3.63079 -0.5943,-6.85575 l -0.44551,-5.86356 -1.43452,0.70355 -1.43452,0.70356 -11.60194,-5.89621 -11.60194,-5.8962 -11.725633,5.864 c -12.420841,6.21168 -11.649215,5.918 -13.509321,5.14158 -0.343488,-0.14338 -0.525711,-0.0172 -0.722475,0.50035 -0.214078,0.56306 -1.331723,10.8028 -1.331723,12.20109 0,0.3408 3.427649,0.38978 27.275342,0.38978 h 27.27534 z m 3.80646,0.77914 c 0,-0.11717 -0.2888,-1.03991 -0.64177,-2.05052 l -0.64176,-1.83747 -0.0161,1.45521 c -0.0215,1.94103 0.192,2.64583 0.8013,2.64583 0.27408,0 0.49832,-0.0959 0.49832,-0.21305 z M 86.636868,132.00636 c 0,-0.74256 -0.180083,-0.88185 -2.910417,-2.25117 l -2.910417,-1.45963 v 0.79362 c 0,0.743 0.181393,0.8857 2.844271,2.23754 1.564349,0.79415 2.874036,1.45005 2.910417,1.45755 0.03638,0.007 0.06615,-0.34256 0.06615,-0.77791 z m 46.950712,-0.16537 c -0.0279,-0.63796 -0.83909,-1.10508 -10.32749,-5.94733 -5.66344,-2.89024 -10.39438,-5.2576 -10.51319,-5.26079 -0.11881,-0.003 -0.17834,0.29828 -0.13229,0.66995 0.0747,0.60272 1.19888,1.24502 10.40247,5.94329 5.67531,2.89715 10.38221,5.27197 10.45978,5.27737 0.0776,0.005 0.12739,-0.30171 0.11072,-0.68249 z m -33.963213,-8.50024 11.848863,-6.01757 4.71359,2.3876 c 2.59248,1.31317 7.89001,4.02644 11.77229,6.02947 l 7.05869,3.64187 2.71462,-1.36226 2.71463,-1.36226 -10.6213,-5.35424 c -5.84172,-2.94483 -10.81128,-5.51189 -11.04347,-5.70459 -0.23905,-0.1984 -0.38767,-0.64709 -0.34264,-1.03447 0.0718,-0.6179 1.12937,-1.20973 10.92744,-6.11529 5.96636,-2.98714 10.88148,-5.525 10.92251,-5.63968 0.041,-0.11468 -1.09007,-0.78203 -2.51355,-1.48301 l -2.58813,-1.2745 -11.82141,5.98814 -11.82141,5.98815 -11.991093,-5.97672 -11.991088,-5.97673 -2.573417,1.21423 c -1.41538,0.66782 -2.569171,1.27375 -2.56398,1.34651 0.0052,0.0728 4.943408,2.56841 10.973815,5.54589 7.106893,3.50899 11.017233,5.58014 11.114623,5.88698 0.0826,0.26036 0.0837,0.68289 0.002,0.93896 -0.0936,0.29492 -4.13332,2.45281 -11.020859,5.88698 -5.980199,2.98177 -10.927167,5.50712 -10.993262,5.61189 -0.09308,0.14755 4.696293,2.77883 5.16691,2.83869 0.05847,0.007 5.438288,-2.69438 11.955158,-6.00404 z m -6.264619,-4.61528 3.944755,-1.98047 -4.870797,-2.51407 -4.870797,-2.51407 -0.308629,3.19833 c -0.169745,1.75908 -0.388556,4.06466 -0.486244,5.1235 l -0.177617,1.92516 1.412287,-0.62895 c 0.776758,-0.34593 3.187426,-1.52017 5.357042,-2.60943 z m 43.180242,1.70316 c -0.0853,-0.83675 -0.28912,-3.18823 -0.45293,-5.22552 -0.16381,-2.03729 -0.31407,-3.71946 -0.33391,-3.73816 -0.0198,-0.0187 -2.35167,1.16449 -5.18185,2.62932 l -5.14579,2.66332 5.25829,2.5962 c 2.89206,1.4279 5.42772,2.59619 5.63479,2.59619 0.29993,0 0.34495,-0.30937 0.2214,-1.52135 z m -36.04613,-5.4328 c 0.40617,-0.29699 -0.773243,-0.96151 -9.408283,-5.30086 -5.429967,-2.72872 -9.961964,-4.95717 -10.071105,-4.95211 -0.109141,0.005 -0.198438,0.33908 -0.198438,0.74226 0,0.69895 0.425526,0.9452 9.144029,5.29167 5.029216,2.50723 9.352244,4.55861 9.606724,4.55861 0.25448,0 0.671663,-0.15281 0.927073,-0.33957 z"
       id="path847" />
  </g>
</svg>
