<?xml version="1.0" encoding="UTF-8" standalone="no"?>
<!-- Created with Inkscape (http://www.inkscape.org/) -->

<svg
   xmlns:dc="http://purl.org/dc/elements/1.1/"
   xmlns:cc="http://creativecommons.org/ns#"
   xmlns:rdf="http://www.w3.org/1999/02/22-rdf-syntax-ns#"
   xmlns:svg="http://www.w3.org/2000/svg"
   xmlns="http://www.w3.org/2000/svg"
   xmlns:sodipodi="http://sodipodi.sourceforge.net/DTD/sodipodi-0.dtd"
   xmlns:inkscape="http://www.inkscape.org/namespaces/inkscape"
   width="52.612816mm"
   height="68.331573mm"
   viewBox="0 0 52.612816 68.331573"
   version="1.1"
   id="svg8"
   inkscape:version="0.92.4 (f8dce91, 2019-08-02)"
   sodipodi:docname="cv.svg">
  <defs
     id="defs2" />
  <sodipodi:namedview
     id="base"
     pagecolor="#ffffff"
     bordercolor="#666666"
     borderopacity="1.0"
     inkscape:pageopacity="0.0"
     inkscape:pageshadow="2"
     inkscape:zoom="1.4"
     inkscape:cx="0.038141318"
     inkscape:cy="58.642026"
     inkscape:document-units="mm"
     inkscape:current-layer="layer1"
     showgrid="false"
     fit-margin-top="5"
     fit-margin-left="5"
     fit-margin-right="5"
     fit-margin-bottom="5"
     inkscape:window-width="1530"
     inkscape:window-height="836"
     inkscape:window-x="70"
     inkscape:window-y="27"
     inkscape:window-maximized="1" />
  <metadata
     id="metadata5">
    <rdf:RDF>
      <cc:Work
         rdf:about="">
        <dc:format>image/svg+xml</dc:format>
        <dc:type
           rdf:resource="http://purl.org/dc/dcmitype/StillImage" />
        <dc:title></dc:title>
      </cc:Work>
    </rdf:RDF>
  </metadata>
  <g
     inkscape:label="Layer 1"
     inkscape:groupmode="layer"
     id="layer1"
     transform="translate(-82.916793,-70.751627)">
    <path
       style="fill:#000000;stroke-width:0.26458332"
       d="m 95.985204,133.971 c -4.34327,-0.13777 -4.560242,-0.17088 -5.589808,-0.85312 -0.589129,-0.39039 -1.353698,-1.1643 -1.699043,-1.7198 l -0.6279,-1.01 -0.07583,-22.62187 -0.07583,-22.621873 4.722722,-4.69636 4.722722,-4.69635 11.492693,0.0243 c 6.32098,0.0134 13.06159,0.10456 14.97914,0.20271 3.37897,0.17294 3.51762,0.20355 4.49791,0.99307 0.55631,0.44805 1.27741,1.27957 1.60243,1.84782 l 0.59096,1.03318 0.004,25.082413 c 0.004,22.58193 -0.0383,25.16682 -0.42348,25.92917 -0.6135,1.21424 -1.40354,2.01007 -2.61488,2.63399 -1.0233,0.52707 -1.48747,0.54629 -14.02292,0.58061 -7.13052,0.0195 -14.99798,-0.029 -17.483246,-0.10785 z m 31.262066,-3.2483 0.90556,-0.9883 V 104.98808 80.241767 l -0.90553,-0.9883 -0.90553,-0.9883 -14.4403,-0.0769 -14.440308,-0.0769 v 3.58259 3.5826 h -3.571875 -3.571875 v 22.215793 22.21579 l 0.810454,0.92306 c 1.0394,1.18381 0.226481,1.13807 19.649084,1.10568 l 15.56476,-0.0259 0.90556,-0.9883 z m -33.047156,-2.75781 c -0.0982,-0.0982 -0.178536,-0.61665 -0.178536,-1.15212 v -0.97357 l 3.21654,-0.17295 c 4.164182,-0.22391 20.103072,-0.22344 24.271782,7.9e-4 l 3.22973,0.17366 -0.0793,1.08311 -0.0793,1.08303 -15.10115,0.0683 c -8.30564,0.0376 -15.181495,-0.012 -15.27969,-0.11024 z m -0.0021,-6.61674 c -0.09702,-0.097 -0.176393,-0.61661 -0.176393,-1.15466 0,-0.96323 0.01888,-0.98086 1.227553,-1.14653 1.599981,-0.2193 26.636586,-0.2193 28.236566,0 1.21203,0.16613 1.22755,0.18079 1.22755,1.15977 0,0.80458 -0.11224,1.02159 -0.59531,1.15105 -0.81819,0.21926 -29.700372,0.20997 -29.91997,-0.01 z m 0.404701,-6.62678 c -0.537017,-0.10266 -0.599974,-0.2479 -0.529167,-1.22074 l 0.08037,-1.10421 H 109.36746 124.581 l 0.0797,1.09008 c 0.0692,0.947 -2.4e-4,1.11149 -0.52917,1.25316 -0.68022,0.18219 -28.570446,0.16492 -29.528794,-0.0183 z m 0.47724,-6.65926 c -0.876726,-0.1549 -0.926042,-0.21997 -0.926042,-1.22194 v -1.05834 l 3.571875,-0.16718 c 4.998072,-0.23393 16.466332,-0.2627 22.182582,-0.0556 l 4.80492,0.17404 v 1.11202 1.11202 l -1.38906,0.16684 c -1.76665,0.2122 -27.00597,0.15696 -28.244275,-0.0618 z m -0.953244,-7.01825 c -0.0795,-0.20719 -0.105907,-0.71361 -0.05867,-1.125403 0.06756,-0.58903 0.255146,-0.78461 0.879627,-0.91709 1.049008,-0.22254 26.585422,-0.27468 28.389902,-0.058 l 1.40239,0.16843 -0.0795,1.086043 -0.0795,1.08605 -15.15486,0.0683 c -12.910703,0.0582 -15.176276,0.0125 -15.299422,-0.30837 z m 16.833519,-9.351503 c -1.54871,-0.7781 -2.12194,-1.93328 -2.12194,-4.27618 0,-2.44235 0.52147,-3.59582 2.01192,-4.45031 1.67496,-0.96027 4.87262,-0.70648 4.86319,0.38598 -0.008,0.94559 -0.32422,1.11113 -1.51477,0.79335 -2.32051,-0.61937 -3.62138,0.75034 -3.43686,3.61874 0.0853,1.32555 0.21502,1.65983 0.85941,2.21411 0.69246,0.59563 0.9052,0.63786 2.42762,0.48188 1.65733,-0.1698 1.66865,-0.16637 1.66865,0.50442 0,0.48152 -0.1948,0.74944 -0.67868,0.93341 -1.0618,0.40369 -3.06724,0.3027 -4.07854,-0.2054 z m 7.25998,-4.29937 -1.59829,-4.7622 h 0.99387 0.99388 l 0.95292,3.10886 c 0.52412,1.70987 1.04534,3.40651 1.15829,3.77031 0.18893,0.60856 0.21742,0.61914 0.35634,0.13229 0.0831,-0.29104 0.59744,-1.98768 1.1431,-3.77031 l 0.99211,-3.24115 h 1.00379 1.00379 l -1.62297,4.7625 -1.62298,4.7625 -1.07778,-3.1e-4 -1.07778,-3.2e-4 -1.59829,-4.7622 z"
       id="path3724"
       inkscape:connector-curvature="0" />
  </g>
</svg>
