<svg xmlns="http://www.w3.org/2000/svg" width="32" height="32" viewBox="0 0 52.613 68.332"><path d="M13.068 63.22c-4.343-.138-4.56-.172-5.59-.854-.589-.39-1.353-1.164-1.698-1.72l-.628-1.01-.076-22.621L5 14.393l4.723-4.697L14.445 5l11.493.024c6.321.014 13.062.105 14.98.203 3.378.173 3.517.204 4.497.993.556.448 1.278 1.28 1.603 1.848l.59 1.033.005 25.082c.004 22.582-.039 25.167-.424 25.93-.613 1.214-1.403 2.01-2.615 2.634-1.023.527-1.487.546-14.023.58-7.13.02-14.998-.029-17.483-.108zM44.33 59.97l.906-.988V9.49l-.905-.988-.906-.988-14.44-.077-14.44-.077v7.165H7.4v44.432l.81.923c1.04 1.183.227 1.138 19.65 1.105l15.564-.026.905-.988zm-33.047-2.758c-.098-.098-.178-.616-.178-1.152v-.973l3.216-.173c4.165-.224 20.103-.224 24.272 0l3.23.174-.08 1.083-.079 1.083-15.1.069c-8.307.037-15.182-.012-15.28-.11zm-.002-6.616c-.097-.097-.176-.617-.176-1.155 0-.963.019-.981 1.227-1.147 1.6-.219 26.637-.219 28.237 0 1.212.166 1.227.181 1.227 1.16 0 .805-.112 1.022-.595 1.151-.818.22-29.7.21-29.92-.01zm.405-6.627c-.537-.103-.6-.248-.53-1.221l.081-1.104h30.427l.08 1.09c.07.947 0 1.111-.53 1.253-.68.182-28.57.165-29.528-.018zm.477-6.66c-.877-.154-.926-.22-.926-1.221V35.03l3.572-.167c4.998-.234 16.466-.263 22.183-.056l4.804.174v2.225l-1.389.166c-1.766.213-27.006.157-28.244-.061zm-.953-7.018c-.08-.207-.106-.713-.059-1.125.068-.59.255-.785.88-.917 1.049-.223 26.585-.275 28.39-.058l1.402.168-.08 1.086-.079 1.086-15.155.069c-12.91.058-15.176.012-15.3-.309zm16.833-9.351c-1.548-.778-2.122-1.934-2.122-4.276 0-2.443.522-3.596 2.012-4.45 1.675-.961 4.873-.707 4.864.385-.008.946-.325 1.111-1.515.794-2.32-.62-3.622.75-3.437 3.618.085 1.326.215 1.66.86 2.214.692.596.905.638 2.427.482 1.657-.17 1.669-.166 1.669.505 0 .481-.195.75-.679.933-1.062.404-3.067.303-4.079-.205zm7.26-4.3l-1.598-4.762h1.988l.953 3.109c.524 1.71 1.045 3.407 1.158 3.77.189.609.218.62.356.133.084-.291.598-1.988 1.144-3.77l.992-3.242H42.303l-1.623 4.763-1.623 4.762H36.902l-1.599-4.763z"></path></svg>
