<?xml version="1.0" encoding="UTF-8" standalone="no"?>
<!-- Created with Inkscape (http://www.inkscape.org/) -->

<svg
   xmlns:dc="http://purl.org/dc/elements/1.1/"
   xmlns:cc="http://creativecommons.org/ns#"
   xmlns:rdf="http://www.w3.org/1999/02/22-rdf-syntax-ns#"
   xmlns:svg="http://www.w3.org/2000/svg"
   xmlns="http://www.w3.org/2000/svg"
   xmlns:sodipodi="http://sodipodi.sourceforge.net/DTD/sodipodi-0.dtd"
   xmlns:inkscape="http://www.inkscape.org/namespaces/inkscape"
   width="110.6976mm"
   height="113.90536mm"
   viewBox="0 0 110.6976 113.90536"
   version="1.1"
   id="svg8"
   inkscape:version="0.92.4 (f8dce91, 2019-08-02)"
   sodipodi:docname="three-js.svg">
  <defs
     id="defs2" />
  <sodipodi:namedview
     id="base"
     pagecolor="#ffffff"
     bordercolor="#666666"
     borderopacity="1.0"
     inkscape:pageopacity="0.0"
     inkscape:pageshadow="2"
     inkscape:zoom="0.98994949"
     inkscape:cx="197.11175"
     inkscape:cy="199.63309"
     inkscape:document-units="mm"
     inkscape:current-layer="layer1"
     showgrid="false"
     fit-margin-top="2"
     fit-margin-left="2"
     fit-margin-right="2"
     fit-margin-bottom="2"
     inkscape:window-width="1530"
     inkscape:window-height="836"
     inkscape:window-x="70"
     inkscape:window-y="27"
     inkscape:window-maximized="1" />
  <metadata
     id="metadata5">
    <rdf:RDF>
      <cc:Work
         rdf:about="">
        <dc:format>image/svg+xml</dc:format>
        <dc:type
           rdf:resource="http://purl.org/dc/dcmitype/StillImage" />
        <dc:title></dc:title>
      </cc:Work>
    </rdf:RDF>
  </metadata>
  <g
     inkscape:label="Layer 1"
     inkscape:groupmode="layer"
     id="layer1"
     transform="translate(3.8497804,-106.88141)">
    <path
       style="fill:#000000;stroke-width:0.26458332"
       d="m 43.308104,192.76723 c -0.271852,0.14549 -0.582054,0.1124 -0.836843,-0.0893 -0.25899,-0.20501 -2.237062,-7.75616 -5.490068,-20.95797 -2.796864,-11.35063 -7.389557,-29.955 -10.205986,-41.34305 -2.816429,-11.38805 -5.052576,-20.88329 -4.969215,-21.10052 0.08336,-0.21724 0.387106,-0.39498 0.674989,-0.39498 0.287884,0 8.639286,2.33458 18.558673,5.18796 9.919385,2.85337 23.750245,6.83182 30.735245,8.841 6.985,2.00918 17.105313,4.91583 22.489583,6.45923 5.384271,1.54341 9.968178,2.90598 10.186458,3.02794 0.21828,0.12197 0.39688,0.47882 0.39688,0.79302 0,0.41235 -8.499699,8.74638 -30.55387,29.95837 -16.804627,16.16291 -30.748258,29.49114 -30.985846,29.61829 z m 0.282887,-2.70775 c 0.126055,-0.0458 3.145978,-2.88082 6.710944,-6.30005 3.564965,-3.41923 6.4482,-6.25034 6.407193,-6.29135 -0.04101,-0.041 -3.988583,-1.19411 -8.772388,-2.56244 -4.783806,-1.36834 -8.741677,-2.44403 -8.795272,-2.39044 -0.0536,0.0536 0.755921,3.58753 1.798927,7.85319 1.043006,4.26566 2.014506,8.20993 2.158892,8.76504 0.144385,0.55512 0.365651,0.97184 0.491704,0.92605 z m 13.02821,-14.5274 c 0.254558,0.0136 0.404643,-0.12123 0.340963,-0.30638 -0.06256,-0.18191 -1.012523,-4.01295 -2.111017,-8.51342 -1.098497,-4.50048 -2.050841,-8.23627 -2.116326,-8.30175 -0.06548,-0.0655 -2.981063,2.65456 -6.479071,6.04454 -3.498012,3.38997 -6.314509,6.2091 -6.258886,6.26472 0.05562,0.0556 3.716544,1.15567 8.135377,2.44454 4.418832,1.28887 8.238865,2.35436 8.48896,2.36775 z m 2.381853,-0.30507 c 0.109226,-0.0371 2.998259,-2.74187 6.420072,-6.0106 3.421814,-3.26873 6.220183,-6.00717 6.218598,-6.08542 -0.0016,-0.0782 -3.781822,-1.22725 -8.400521,-2.55333 -4.618702,-1.32609 -8.439504,-2.30182 -8.490675,-2.16829 -0.05117,0.13354 0.840028,3.9873 1.980446,8.56394 1.140418,4.57663 2.162852,8.2908 2.27208,8.2537 z m -19.435757,-6.83833 c 0.689343,-0.62888 3.607425,-3.41488 6.48462,-6.1911 l 5.23127,-5.0477 -8.501827,-2.45308 c -4.676006,-1.34919 -8.548894,-2.40601 -8.60642,-2.34849 -0.05752,0.0575 0.791777,3.78484 1.887338,8.28292 1.095561,4.49807 2.05037,8.34089 2.121798,8.5396 0.09066,0.25221 0.508214,0.0161 1.383221,-0.78215 z m 32.275748,-7.15144 c 0.181901,0.0174 0.325927,-0.11714 0.320059,-0.29904 -0.0059,-0.18191 -0.936945,-4.04986 -2.069063,-8.59546 -1.132118,-4.5456 -2.134587,-8.34091 -2.22771,-8.43404 -0.09312,-0.0931 -3.031577,2.60455 -6.529895,5.99483 -3.498318,3.39027 -6.360578,6.23677 -6.360578,6.32554 0,0.0888 3.720703,1.24481 8.268229,2.56895 4.547526,1.32414 8.417057,2.42179 8.598958,2.43922 z m 3.309898,-1.44601 c 0.617029,-0.55296 3.532888,-3.32688 6.479685,-6.16427 2.946797,-2.83738 5.357813,-5.23784 5.357813,-5.33434 0,-0.0965 -3.824801,-1.26949 -8.499555,-2.60662 -4.674756,-1.33714 -8.556315,-2.3744 -8.625683,-2.30503 -0.06937,0.0694 0.78333,3.85465 1.894893,8.41173 1.111562,4.55708 2.077262,8.44722 2.146001,8.64476 0.08768,0.25199 0.459729,0.0592 1.246846,-0.64623 z m -23.413191,-4.36737 c 0.218057,0.0157 0.284764,-0.18447 0.190281,-0.57108 -0.08002,-0.32742 -1.064556,-4.30778 -2.187856,-8.84523 l -2.042361,-8.24991 -6.438328,6.17625 c -3.54108,3.39693 -6.446641,6.27596 -6.456801,6.39783 -0.01016,0.12187 3.720524,1.312 8.290411,2.64474 4.569886,1.33275 8.459981,2.43407 8.644654,2.4474 z m 3.065225,-1.74125 c 0.603308,-0.54094 3.506041,-3.30812 6.450518,-6.1493 3.404843,-3.2854 5.234741,-5.2294 5.027083,-5.34057 -0.179581,-0.0961 -3.927015,-1.21144 -8.327628,-2.47845 -4.400614,-1.267 -8.108757,-2.26358 -8.240313,-2.21461 -0.131559,0.049 0.713139,3.93145 1.87711,8.62774 l 2.11631,8.5387 z m -18.407784,-7.51055 c 1.705297,-1.65696 4.618846,-4.494 6.474554,-6.30454 1.855706,-1.81054 3.318616,-3.34729 3.250907,-3.415 -0.06771,-0.0677 -3.9375,-1.22568 -8.599535,-2.57327 -5.773166,-1.66877 -8.476427,-2.34243 -8.476427,-2.11234 0,0.1858 0.894902,4.0125 1.988671,8.50377 1.093769,4.49127 2.050011,8.33427 2.124981,8.53999 0.09179,0.25187 1.149005,-0.60995 3.236849,-2.63861 z m 50.893314,0.10949 c 0.09228,-0.048 -0.775099,-3.86894 -1.927505,-8.49106 -1.152403,-4.62212 -2.12162,-8.4954 -2.153809,-8.60727 -0.03219,-0.11188 -2.899547,2.52263 -6.371905,5.85448 -3.472354,3.33185 -6.307698,6.16097 -6.300763,6.28696 0.0069,0.12598 3.741668,1.31243 8.299407,2.63657 4.557739,1.32414 8.362299,2.36828 8.454575,2.32032 z m 2.021023,-0.0939 c 0.0506,0 3.004142,-2.81554 6.56342,-6.25675 3.559279,-3.44122 6.43056,-6.29763 6.38062,-6.34757 -0.05,-0.0499 -3.826404,-1.16346 -8.392122,-2.47449 -4.565722,-1.31103 -8.436875,-2.38369 -8.602565,-2.38369 -0.188343,0 0.497065,3.27255 1.828692,8.73125 1.171472,4.80219 2.171353,8.73125 2.221955,8.73125 z M 66.699501,140.3401 c 0.341032,0.0189 0.4393,-0.10791 0.337957,-0.4363 -0.07859,-0.25466 -1.03732,-4.08271 -2.130515,-8.50678 -1.093192,-4.42407 -2.019181,-8.07457 -2.057752,-8.11221 -0.03857,-0.0376 -2.939036,2.68907 -6.445482,6.05938 -3.506449,3.37031 -6.339414,6.17221 -6.295483,6.22645 0.04393,0.0542 3.686749,1.14354 8.095149,2.42067 4.4084,1.27714 8.231656,2.33409 8.496126,2.34879 z m 2.25336,-0.23786 c 0.05446,0 2.947612,-2.75876 6.429225,-6.13058 3.481609,-3.37182 6.237411,-6.21542 6.124006,-6.31911 -0.113406,-0.1037 -3.926896,-1.2515 -8.474422,-2.55069 -4.547526,-1.29918 -8.269004,-2.23581 -8.269954,-2.08141 -0.0011,0.15441 0.91939,4.06098 2.0452,8.68127 1.125807,4.62028 2.091484,8.40052 2.145945,8.40052 z m -22.644107,-5.58342 c 0.254661,0.0149 0.458965,-0.12166 0.454009,-0.30356 -0.0049,-0.1819 -0.929735,-4.0787 -2.055061,-8.65954 l -2.046049,-8.32881 -6.41397,6.18773 c -3.527683,3.40325 -6.346676,6.25825 -6.26443,6.34443 0.08225,0.0862 3.684951,1.18628 8.00601,2.44465 4.321057,1.25836 8.064829,2.30016 8.319491,2.3151 z m 4.536416,-2.27833 c 1.179372,-1.1467 4.048731,-3.92481 6.37635,-6.17357 2.327621,-2.24875 4.209132,-4.14022 4.181136,-4.20326 -0.028,-0.063 -3.837413,-1.20765 -8.46537,-2.54358 -4.627959,-1.33593 -8.448466,-2.4013 -8.490019,-2.36748 -0.04155,0.0338 0.898507,3.95655 2.089021,8.71716 l 2.164566,8.65566 z m -22.572566,-3.77992 c 0.100534,0 3.055045,-2.76102 6.565581,-6.13561 3.510535,-3.37458 6.292268,-6.21717 6.181628,-6.31685 -0.110639,-0.0997 -3.99539,-1.27358 -8.632779,-2.60865 -4.637389,-1.33506 -8.457082,-2.39178 -8.488207,-2.34825 -0.03112,0.0435 0.899114,3.97845 2.067199,8.74426 1.168084,4.7658 2.206045,8.6651 2.306578,8.6651 z m 43.502299,90.28522 c -0.58209,0.0671 -1.41552,0.05 -1.85209,-0.038 -0.56616,-0.1141 -0.81853,-0.33434 -0.8802,-0.76814 -0.0476,-0.33449 0.0491,-0.77153 0.21482,-0.97119 0.19034,-0.22935 0.61188,-0.31446 1.14479,-0.23114 0.5199,0.0813 1.04652,-0.0193 1.37268,-0.26223 0.740945,-0.89561 0.516199,0.43169 0.66146,-8.81627 l 0.13229,-8.42217 h 0.92604 0.92604 l 0.0698,8.67123 c 0.0591,7.34718 0.008,8.79031 -0.33347,9.45101 -0.22178,0.42888 -0.61036,0.88895 -0.86352,1.02239 -0.25315,0.13343 -0.93653,0.29748 -1.51861,0.36454 z M 4.1228433,212.83558 c -0.19022,-0.0149 -0.74792,-0.12202 -1.23934,-0.23804 -0.49141,-0.11602 -1.20579,-0.52297 -1.5875,-0.90432 -0.69200997,-0.69136 -0.69425997,-0.70753 -0.77652997,-5.5828 l -0.0825,-4.88943 h -1.050273 c -0.73578303,0 -1.10089703,-0.13192 -1.21933003,-0.44055 -0.121848,-0.31754 0.396177,-0.98248 1.85511303,-2.38125 1.11328997,-1.06739 2.20513997,-1.9407 2.42631997,-1.9407 0.30572,0 0.40215,0.31445 0.40215,1.31133 v 1.31132 l 1.91823,0.0777 c 1.8076,0.0733 1.92349,0.11503 2.0095,0.72437 0.0561,0.39748 -0.0908,0.77978 -0.3813,0.99219 -0.26046,0.19045 -1.16241,0.34555 -2.0095,0.34555 h -1.53693 v 4.35953 c 0,4.30862 0.007,4.36438 0.6344,4.7752 0.47393,0.31053 0.96894,0.3713 1.95689,0.24024 1.16862,-0.15502 1.34177,-0.11466 1.48826,0.3469 0.0912,0.28728 0.0954,0.7056 0.01,0.9296 -0.086,0.224 -0.67716,0.53843 -1.31379,0.69874 -0.63662,0.1603 -1.31314,0.27927 -1.50336,0.26438 z m 38.1510197,-0.12883 c -0.94589,0.0702 -2.25558,0.0163 -2.91042,-0.11984 -0.65484,-0.13611 -1.66037,-0.57733 -2.2345,-0.98048 -0.58501,-0.41078 -1.32964,-1.28828 -1.69395,-1.99621 -0.45371,-0.88164 -0.68771,-1.84964 -0.77467,-3.20458 -0.0905,-1.41018 0.001,-2.31929 0.33417,-3.32257 0.25232,-0.75966 0.83152,-1.80575 1.28711,-2.32463 0.45559,-0.51889 1.30561,-1.16025 1.88894,-1.42526 0.62634,-0.28453 1.68701,-0.4842 2.59046,-0.48763 0.84142,-0.003 1.97251,0.1786 2.51354,0.40399 0.54103,0.22538 1.42789,0.84263 1.9708,1.37165 0.56479,0.55034 1.16593,1.50022 1.40506,2.22016 0.22986,0.69207 0.38097,1.77146 0.3358,2.39866 l -0.0821,1.14036 -4.96093,0.072 c -4.22754,0.0613 -4.96094,0.13135 -4.96094,0.47356 0,0.22087 0.22583,0.84425 0.50186,1.3853 0.29451,0.5773 0.93795,1.22882 1.55738,1.57696 0.73787,0.41471 1.49337,0.59324 2.51046,0.59324 0.80022,0 2.05637,-0.19424 2.79143,-0.43164 0.73507,-0.2374 1.53062,-0.35714 1.7679,-0.26609 0.2874,0.11029 0.40341,0.40894 0.34754,0.89466 -0.065,0.56552 -0.35101,0.86055 -1.27449,1.31493 -0.69789,0.34339 -1.90234,0.63866 -2.91041,0.71348 z m -1.45521,-8.04618 c 3.73922,0 3.83646,-0.0143 3.83646,-0.56408 0,-0.31024 -0.24962,-0.96797 -0.55471,-1.46162 -0.30509,-0.49365 -0.93009,-1.09166 -1.38889,-1.32891 -0.4588,-0.23725 -1.35735,-0.42346 -1.99677,-0.41379 -0.71077,0.0107 -1.43063,0.21604 -1.85226,0.52825 -0.37932,0.28088 -0.95756,0.9043 -1.28498,1.38538 -0.32742,0.48108 -0.59531,1.09521 -0.59531,1.36473 0,0.45447 0.2785,0.49004 3.83646,0.49004 z m 16.53646,8.04618 c -0.94589,0.0702 -2.25558,0.0163 -2.91042,-0.11984 -0.65484,-0.13611 -1.66037,-0.57733 -2.2345,-0.98048 -0.58501,-0.41078 -1.32964,-1.28828 -1.69395,-1.99621 -0.45371,-0.88164 -0.68771,-1.84964 -0.77467,-3.20458 -0.0905,-1.41018 10e-4,-2.31929 0.33417,-3.32257 0.25232,-0.75966 0.83152,-1.80575 1.28711,-2.32463 0.45559,-0.51889 1.30561,-1.16025 1.88894,-1.42526 0.62634,-0.28453 1.68701,-0.4842 2.59046,-0.48763 0.84142,-0.003 1.97251,0.1786 2.51354,0.40399 0.54103,0.22538 1.42789,0.84263 1.9708,1.37165 0.56479,0.55034 1.16593,1.50022 1.40505,2.22016 0.22987,0.69207 0.38098,1.77146 0.33581,2.39866 l -0.0821,1.14036 -4.96093,0.072 c -4.22754,0.0613 -4.96094,0.13135 -4.96094,0.47356 0,0.22087 0.22583,0.84425 0.50186,1.3853 0.29451,0.5773 0.93795,1.22882 1.55738,1.57696 0.73787,0.41471 1.49337,0.59324 2.51046,0.59324 0.80022,0 2.05637,-0.19424 2.79143,-0.43164 0.73507,-0.2374 1.53062,-0.35714 1.7679,-0.26609 0.2874,0.11029 0.40341,0.40894 0.34754,0.89466 -0.065,0.56552 -0.35101,0.86055 -1.27449,1.31493 -0.69789,0.34339 -1.90234,0.63866 -2.91041,0.71348 z m -1.45521,-8.04618 c 3.73922,0 3.83646,-0.0143 3.83646,-0.56408 0,-0.31024 -0.24962,-0.96797 -0.55471,-1.46162 -0.30509,-0.49365 -0.93009,-1.09166 -1.38889,-1.32891 -0.4588,-0.23725 -1.35735,-0.42346 -1.99677,-0.41379 -0.71077,0.0107 -1.43063,0.21604 -1.85226,0.52825 -0.37932,0.28088 -0.95756,0.9043 -1.28498,1.38538 -0.32742,0.48108 -0.59531,1.09521 -0.59531,1.36473 0,0.45447 0.2785,0.49004 3.83646,0.49004 z m 28.15322,8.04788 c -0.78667,0.0686 -1.96609,0.015 -2.62093,-0.11901 -0.65485,-0.13403 -1.63711,-0.44313 -2.18281,-0.68688 -0.81421,-0.36369 -0.99219,-0.57985 -0.99219,-1.20506 0,-0.45857 0.17082,-0.82742 0.42911,-0.92653 0.23601,-0.0906 0.98015,0.0328 1.65364,0.2742 0.6735,0.24137 1.97409,0.43827 2.89021,0.43755 1.41473,-0.001 1.76352,-0.0991 2.31511,-0.65074 0.35718,-0.35719 0.64943,-0.81499 0.64943,-1.01733 0,-0.20234 -0.20836,-0.55631 -0.46302,-0.7866 -0.25466,-0.23028 -1.62983,-0.74231 -3.05593,-1.13782 -1.77564,-0.49246 -2.83415,-0.94448 -3.35828,-1.4341 -0.42096,-0.39323 -0.84502,-1.03228 -0.94236,-1.42011 -0.0973,-0.38783 -0.0995,-1.22151 -0.005,-1.85263 0.11532,-0.76907 0.43915,-1.42067 0.98192,-1.97583 0.44541,-0.45558 1.24447,-0.94905 1.77568,-1.0966 0.53121,-0.14755 1.62884,-0.26893 2.43917,-0.26974 0.81034,-8e-4 2.09026,0.18173 2.84428,0.40565 1.24309,0.36916 1.37093,0.47873 1.37093,1.17501 0,0.42233 -0.12,0.84205 -0.26667,0.93269 -0.14667,0.0906 -1.16431,0.014 -2.26143,-0.17036 -1.68535,-0.28319 -2.16624,-0.27555 -3.10031,0.0492 -0.65341,0.2272 -1.2341,0.64338 -1.41988,1.01764 -0.17289,0.34826 -0.25066,0.79915 -0.17284,1.00197 0.0778,0.20281 0.4545,0.52977 0.83705,0.72658 0.38255,0.1968 1.68531,0.62418 2.89502,0.94973 1.6208,0.43619 2.43872,0.81756 3.10885,1.44957 0.81762,0.77111 0.90928,1.00135 0.90839,2.28163 -5.3e-4,0.92608 -0.17474,1.7089 -0.49793,2.23889 -0.27332,0.44821 -0.90915,1.01053 -1.41297,1.24961 -0.50382,0.23908 -1.55967,0.4908 -2.34634,0.55938 z m -73.13239,-0.11038 c -0.30559,0 -0.6985,-0.14287 -0.87312,-0.3175 -0.2346797,-0.23467 -0.3164497,-2.66763 -0.3134497,-9.32656 0.002,-4.95498 0.0915,-9.13681 0.19843,-9.29294 0.1069197,-0.15614 0.3890797,-0.35552 0.6270397,-0.44306 0.23795,-0.0876 0.68444,0.0172 0.99219,0.23273 0.52266,0.36609 0.55954,0.62726 0.55954,3.96226 v 3.57034 l 0.87413,-0.66674 c 0.48078,-0.3667 1.31039,-0.84901 1.84359,-1.0718 0.5332,-0.22278 1.53882,-0.4031 2.23472,-0.40071 0.81645,0.003 1.63364,0.21398 2.30375,0.59532 0.6474,0.36841 1.27014,1.03009 1.65364,1.75705 0.57838,1.09636 0.61517,1.45316 0.61517,5.96635 0,3.38076 -0.0939,4.89415 -0.3175,5.11776 -0.17463,0.17463 -0.59429,0.3175 -0.93259,0.3175 -0.41681,0 -0.69828,-0.21878 -0.87313,-0.67868 -0.14192,-0.37327 -0.25803,-2.52231 -0.25803,-4.77564 0,-3.13129 -0.0939,-4.27855 -0.39842,-4.8674 -0.27156,-0.52515 -0.7349,-0.87127 -1.45521,-1.08708 -0.80027,-0.23977 -1.30054,-0.24359 -2.06094,-0.0158 -0.55229,0.16547 -1.50479,0.72938 -2.11667,1.25312 l -1.11251,0.95227 v 4.29209 c 0,2.98552 -0.0967,4.38875 -0.3175,4.60959 -0.17463,0.17463 -0.56753,0.3175 -0.87313,0.3175 z m 16.13958,0 c -0.30559,0 -0.6985,-0.14287 -0.87312,-0.3175 -0.22872,-0.22871 -0.3175,-2.03603 -0.3175,-6.46339 0,-5.2344 0.0617,-6.20755 0.41577,-6.56166 0.22868,-0.22868 0.56741,-0.41578 0.75275,-0.41578 0.18533,0 0.53401,0.21773 0.77485,0.48386 0.24083,0.26612 0.43788,0.76464 0.43788,1.10783 v 0.62398 l 0.7276,-0.68075 c 0.40019,-0.37442 1.12172,-0.8797 1.60342,-1.12286 0.48767,-0.24618 1.30846,-0.40613 1.85208,-0.36094 0.86217,0.0717 0.98666,0.17243 1.06512,0.86188 0.0591,0.51939 -0.0685,0.89576 -0.3813,1.12448 -0.25858,0.18907 -0.83434,0.34422 -1.27947,0.34476 -0.44513,5.3e-4 -1.22604,0.24982 -1.73537,0.55395 -0.50932,0.30412 -1.13175,0.80969 -1.38318,1.12349 -0.38981,0.48651 -0.458,1.1959 -0.46302,4.81709 -0.004,2.94307 -0.10334,4.34402 -0.32338,4.56406 -0.17463,0.17463 -0.56753,0.3175 -0.87313,0.3175 z m 39.55521,0 c -0.39145,0 -0.9177,-0.22759 -1.16945,-0.50576 -0.26912,-0.29738 -0.42229,-0.81177 -0.37173,-1.24843 0.0558,-0.48193 0.34141,-0.88492 0.81358,-1.14788 0.65342,-0.3639 0.80179,-0.3639 1.45521,0 0.47216,0.26296 0.75778,0.66595 0.81358,1.14788 0.0505,0.43666 -0.10261,0.95105 -0.37174,1.24843 -0.25174,0.27817 -0.77799,0.50576 -1.16945,0.50576 z m 6.87917,-16.40416 c -0.37836,0 -0.83079,-0.14288 -1.00542,-0.3175 -0.17462,-0.17463 -0.3175,-0.62706 -0.3175,-1.00542 0,-0.37835 0.14288,-0.83079 0.3175,-1.00542 0.17463,-0.17462 0.62706,-0.3175 1.00542,-0.3175 0.37835,0 0.83079,0.14288 1.00542,0.3175 0.17462,0.17463 0.3175,0.62707 0.3175,1.00542 0,0.37836 -0.14288,0.83079 -0.3175,1.00542 -0.17463,0.17462 -0.62707,0.3175 -1.00542,0.3175 z"
       id="path3845"
       inkscape:connector-curvature="0"
       sodipodi:nodetypes="ccsscsssccsscccscccsccccscccsccscccsccccscsccccsccsscccsccsccccsccscccscccsccsscssscscscscscsccssssccscscccsscccssccscsccccccscsccsccccssccccccscccccccccccccsccssccccscscccccccccccccccccsccccsccsccccccsssscssssccccccccccsccccsccsccccccsssscsssscccsccccsccccccsccscccccccscssccccccccsccccccscscscccccscccscscscsccccccccccsssccccccsscscscscs" />
  </g>
</svg>
